<svg width="1335px" height="1335px" viewBox="0 0 1335 1335" version="1.1" xmlns="http://www.w3.org/2000/svg" xmlns:xlink="http://www.w3.org/1999/xlink">
    <title>Coe-Tav-Cabin</title>
    <defs>
        <polygon id="path-1" points="0 1333.3333 1333.3333 1333.3333 1333.3333 0 0 0"></polygon>
    </defs>
    <g id="Page-1" stroke="none" stroke-width="1" fill="none" fill-rule="evenodd">
        <g id="g12-Clipped" transform="translate(667.505585, 667.381050) scale(-1, 1) rotate(-180.000000) translate(-667.505585, -667.381050) translate(0.838935, 0.714400)">
            <mask id="mask-2" fill="white">
                <use xlink:href="#path-1"></use>
            </mask>
            <g id="path14"></g>
            <g id="g12" mask="url(#mask-2)">
                <g transform="translate(53.333332, 81.333331)">
                    <g id="g18" transform="translate(0.554400, 0.533600)">
                        <path d="M1195.99997,63.9999984 C1195.99997,29.0293326 928.299977,0.579999986 598.137318,0.579999986 C267.973327,0.579999986 0.273333326,29.0293326 0.273333326,63.9999984 C0.273333326,82.6639979 76.1213314,99.3333308 196.765328,110.930664 C275.11066,118.54133 372.199991,123.794664 479.631988,126.150664 C468.747988,124.158664 451.437322,122.707997 442.335989,121.983997 C439.659989,121.802664 437.517322,121.62133 436.802656,121.62133 C409.674656,118.54133 382.726657,118.54133 355.955991,118.903997 C342.571991,119.08533 329.186658,119.26533 315.801325,119.26533 C308.485326,119.627997 300.813326,118.722664 295.637326,115.822664 C289.923993,112.381331 287.427993,106.582664 292.957326,97.1599976 C314.375992,91.7239977 447.690655,96.9786642 498.019988,95.1666643 C513.543987,97.1599976 530.49732,89.1866644 533.52932,104.226664 L533.886653,105.494664 C534.958653,111.654664 534.958653,117.090664 534.958653,123.614664 L534.958653,127.05733 L544.954653,127.05733 L544.954653,111.473331 C543.52532,87.1933312 562.086653,90.2746644 581.005319,90.2746644 C650.783984,89.9106644 805.874647,90.4559977 835.677312,90.2746644 C841.919979,90.8186644 839.781312,95.8906643 840.495979,105.857331 L840.495979,121.802664 C866.907978,120.714664 892.070644,119.26533 916.16531,117.634664 C915.62931,115.098664 915.62931,112.381331 915.986644,109.662664 C917.058644,102.958664 922.766644,97.3413309 928.835977,94.6226643 C934.722643,91.905331 941.14931,90.2746644 947.754643,90.9986644 C951.679976,91.361331 955.426643,92.2666644 958.817309,94.6226643 C963.099976,97.3413309 966.137309,101.145331 967.918642,105.857331 C968.811976,108.574664 968.990642,111.111997 968.454642,113.647997 C980.231975,112.742664 991.834642,111.654664 1002.89731,110.567997 C1121.58131,98.9706642 1195.99997,82.4826646 1195.99997,63.9999984" id="path20" fill="#000000" fill-rule="nonzero"></path>
                    </g>
                    <g id="g22" transform="translate(320.823059, 106.591997)">
                        <path d="M86.6666645,3.9999999 C84.0119979,3.8199999 81.8853313,3.63999991 81.175998,3.63999991 C54.261332,0.583999985 27.5239993,0.583999985 0.962666643,0.943999976 C28.586666,2.38133327 57.2706652,3.28133325 86.6666645,3.9999999" id="path24" fill="#000000" fill-rule="nonzero"></path>
                    </g>
                    <g id="g26" transform="translate(55.070265, 80.107198)">
                        <path d="M1010.66664,729.333315 C1001.74264,715.018649 987.286642,726.434649 976.581309,734.045315 C964.978643,741.474648 947.314643,753.251981 946.95731,748.902648 C947.314643,743.649315 954.451976,737.850648 958.019976,733.682648 C980.506642,712.482649 1012.63197,688.926649 1006.02664,653.591984 C1004.60131,651.237317 1002.99331,653.773317 999.782642,655.76665 C947.671976,689.651983 592.162652,922.67331 565.214653,940.430643 C560.931986,943.691976 551.82932,947.134643 545.227986,946.40931 C537.90932,946.95331 525.595987,940.611976 524.166654,938.799977 C408.698656,859.795979 140.110663,675.335983 82.6399979,635.835984 C77.999998,633.298651 77.2893314,630.399984 73.8959982,632.754651 C70.1479982,636.559984 50.3373321,654.499984 48.3759988,661.383983 C118.511997,708.858649 432.257323,920.135977 531.66532,987.179975 C537.198653,990.441309 536.84132,991.890642 544.335986,994.246642 C554.862653,996.601308 565.571986,991.527975 574.673319,985.366642 C628.749318,949.30931 684.25065,911.075977 741.719981,879.003978 C754.569314,873.749311 770.986647,866.501312 782.942647,865.413312 C762.421314,881.902645 734.399982,893.499978 711.913316,908.177311 C661.585317,937.711977 616.967985,969.421309 570.033319,1000.40664 C562.539986,1005.11864 554.151986,1009.10397 545.406653,1006.92931 C367.654657,892.955978 213.635995,778.801314 72.1133315,693.818649 C39.095999,670.443983 66.222665,722.086649 76.3959981,731.327982 C92.813331,750.715981 120.119997,759.594648 139.926663,775.358647 C162.593329,792.02798 182.582662,812.50398 205.427995,829.354646 C297.514659,890.962644 391.030657,950.57731 480.978655,1016.89597 C506.855987,1033.20397 540.94532,1062.19597 571.105319,1043.71331 C608.585318,1014.90264 649.629317,990.259975 689.426649,965.435976 C725.119982,940.79331 762.421314,917.055977 799.54398,894.406644 C856.473312,851.281312 910.906644,803.98798 973.547976,769.378647 C986.754642,759.775981 1014.94931,749.990648 1011.38131,731.145315 L1010.66664,729.333315 Z M913.402644,26.282666 C911.621311,21.5719995 908.583977,17.7679996 904.301311,15.049333 C900.911977,12.693333 897.163978,11.7879997 893.238644,11.425333 C886.633311,10.6999997 880.206645,12.3319997 874.319978,15.049333 C868.250645,17.7679996 862.542645,23.3839994 861.470645,30.0893326 C861.113312,32.8066658 861.113312,35.5239991 861.649312,38.0613324 C862.006645,40.0546657 862.717312,42.0479989 863.789312,44.0413322 C865.753312,47.3026655 868.786645,50.2013321 872.175978,51.833332 C876.815978,54.1879986 881.814645,54.369332 886.633311,53.4626653 C889.670644,53.4626653 892.523978,53.101332 895.198644,52.1946654 C898.410644,51.6519987 901.447977,50.7453321 903.943977,49.1146654 C904.122644,49.1146654 904.301311,48.9333321 904.479977,48.7519988 C908.226644,48.0266655 911.438644,44.7653322 911.795977,40.7786656 C913.045311,38.603999 913.759977,36.4306658 913.938644,34.0746658 C914.474644,31.5386659 914.295977,29.0013326 913.402644,26.282666 M785.97998,26.282666 C785.265314,16.3173329 787.405314,11.2439997 781.161314,10.6999997 C751.358648,10.8813331 596.267985,10.3373331 526.48932,10.6999997 C507.570654,10.6999997 489.009321,7.61999981 490.438654,31.8999992 L490.438654,47.4839988 C489.545321,233.031994 490.438654,421.477323 490.259988,607.567985 C491.331988,615.359985 487.579988,631.486651 495.257321,632.029318 C585.735985,638.915984 678.363983,632.029318 769.022647,632.029318 C775.627981,632.029318 780.446647,632.210651 783.121314,632.029318 C785.265314,632.029318 786.158647,629.855984 786.337314,623.513318 C786.51198,616.265318 786.51198,609.018651 786.51198,601.769318 L786.51198,599.233318 C786.158647,483.627988 785.97998,366.755991 785.97998,250.60666 L785.97998,26.282666 Z M480.442655,44.0413322 C480.442655,37.5173324 480.442655,32.0813325 479.370655,25.9213327 L479.013321,24.6533327 C475.981321,9.61333309 459.027989,17.5866662 443.503989,15.5933329 C393.174657,17.4039996 259.861327,12.1506664 238.441327,17.5866662 C232.911994,27.0093327 235.409327,32.8066658 241.121327,36.2493324 C246.297327,39.1493324 253.969327,40.0546657 261.285327,39.691999 C274.67066,39.691999 288.055993,39.511999 301.439992,39.3306657 C328.210658,38.9666657 355.158658,38.9666657 382.286657,42.0479989 C383.001324,42.0479989 385.14399,42.2293323 387.81999,42.4106656 C396.921323,43.1346656 414.23199,44.5839989 425.115989,46.5773322 C435.647989,48.5719988 440.466656,50.9266654 426.545323,53.6439987 C407.453323,55.2759986 375.149324,52.557332 354.622658,51.4706654 C321.609325,51.6519987 288.234659,54.913332 255.219994,53.825332 C245.225327,52.9199987 233.265328,61.0746651 237.551994,72.1266649 C240.049327,78.8306647 249.15066,80.099998 256.113327,80.823998 C339.455992,90.4279977 402.990657,83.5426646 471.519988,88.0719978 C484.725321,87.7093311 479.013321,74.8439981 480.442655,60.7119985 C480.085321,55.8186653 480.263988,51.4706654 480.442655,47.4839988 L480.442655,44.0413322 Z M305.723992,497.218654 C352.841325,496.493321 402.454657,497.218654 450.282655,496.311988 C459.385322,494.863988 470.983988,496.130654 478.125321,490.875988 C479.906655,488.339988 479.549321,482.722655 479.549321,475.837321 C479.013321,466.414655 480.978655,460.617322 478.482655,454.455989 C469.201322,452.643989 326.249325,457.354655 298.765326,457.898655 C282.699993,458.442655 263.965327,458.079989 247.54266,459.347989 C233.805327,459.347989 229.343994,473.843988 234.694661,484.714655 L235.586661,486.709321 C251.469327,507.003987 283.41466,495.950654 305.723992,497.218654 M243.617327,556.470653 C246.297327,557.375986 249.329327,557.738653 252.89866,557.919986 C297.335993,557.194653 342.131991,558.462653 386.74799,559.913319 C413.69599,560.457319 441.717322,562.813319 468.665322,561.181319 C472.591988,560.818653 475.445321,559.913319 477.410655,557.557319 C482.765321,550.310653 480.621321,531.646653 479.727988,522.042654 L479.370655,520.774654 C462.953322,514.794654 287.877326,520.411987 268.605327,518.962654 C262.17866,521.31732 254.683994,528.38532 248.61466,532.551987 C246.297327,534.363987 245.582661,535.81332 248.793327,535.994653 C263.607993,537.987987 309.113326,533.095987 327.853325,538.531987 C341.953325,547.591986 330.175992,545.779986 313.043992,545.779986 C288.947993,546.14132 249.15066,545.598653 238.441327,546.14132 C232.554661,547.22932 237.015994,554.295986 243.617327,556.470653 M479.549321,177.221329 L478.839988,175.771996 C462.238655,159.465329 430.829323,168.343996 409.234656,165.987996 C354.801324,167.255996 301.261326,164.175996 248.07866,168.525329 C240.049327,170.517329 232.733328,178.490662 240.049327,183.563995 C259.325327,188.999995 283.593326,185.013329 304.119992,185.918662 C313.043992,185.918662 325.534659,185.013329 329.818658,188.455995 C332.671992,192.079995 328.389325,193.891995 322.681325,194.435995 C300.189326,195.703995 278.063993,188.999995 254.505327,195.885328 C252.005327,196.973328 251.111994,198.602662 251.29466,200.234662 C251.651994,203.314662 255.573327,206.394662 260.391993,207.481328 C277.881326,210.199995 297.335993,206.033328 314.646659,207.119995 C365.869324,207.481328 418.51599,208.750661 469.915988,208.750661 C484.011988,210.018661 480.799988,191.717329 480.442655,180.665329 C480.085321,179.758662 479.727988,177.946662 479.549321,177.221329 M241.657327,139.170663 C311.793326,144.42533 382.64399,139.350663 452.958655,140.438663 C460.457322,140.075996 470.273322,143.33733 476.695988,140.438663 C481.693321,136.63333 479.727988,115.070664 478.655988,109.271997 L477.946655,108.003997 C449.925322,99.6679975 417.44399,104.742664 382.822657,103.473331 C341.774658,104.198664 291.091993,102.386664 253.611994,104.198664 C238.083994,106.191997 222.559994,131.922663 241.657327,139.170663 M245.046661,261.841327 C249.68666,264.37866 255.93066,266.189327 262.71466,267.277327 C329.997325,271.80666 397.457323,273.801326 465.271988,273.801326 C477.410655,273.257327 479.197321,264.92266 479.727988,252.599994 C480.085321,244.626661 480.799988,235.747994 478.839988,232.486661 L478.125321,231.399994 C472.055988,228.501328 465.271988,227.595994 457.777322,224.514661 C446.357322,221.615994 436.719989,223.245328 425.299989,222.883994 C390.673324,223.065328 358.549324,222.702661 324.462659,222.702661 C296.442659,224.153328 269.851993,218.535995 243.081327,228.319994 C229.159994,234.842661 231.839994,256.405327 245.046661,261.841327 M479.727988,424.558656 C479.013321,416.40399 481.335988,405.894657 476.874655,398.28399 C469.733322,393.210657 455.994655,395.565323 448.497322,395.746657 C392.45999,395.746657 337.311992,396.29199 282.34266,397.558657 C267.89066,398.28399 246.833327,394.841323 236.837327,406.618657 L235.765327,408.250656 C232.197328,414.59199 234.873327,430.175989 241.299994,435.066656 C248.971994,440.503989 259.14666,437.966656 268.42666,438.871989 C319.822659,440.141322 369.437324,436.154656 422.262656,441.770656 C441.181322,443.039989 483.475988,456.810655 479.727988,424.558656 M478.655988,288.114659 L477.410655,286.846659 C468.843988,282.861326 458.313322,288.478659 451.354655,288.839993 C406.738656,288.839993 268.247993,288.839993 243.795994,289.021326 C233.265328,291.377326 235.229327,310.583992 242.187994,316.563992 C313.574659,340.662658 392.99599,322.181325 466.522655,326.166659 C483.658655,325.623992 482.229321,300.437326 478.655988,288.114659 M462.595988,341.025325 C414.23199,336.314658 363.546658,341.569325 316.075992,341.025325 C304.477326,343.018658 223.810661,333.233325 240.406661,356.609324 L241.657327,357.695991 C269.851993,363.494658 315.182659,354.614658 346.950658,360.051991 C364.797324,365.487991 343.917325,370.922657 334.994658,369.835991 C309.653326,370.741324 284.129326,369.111991 258.61066,369.835991 C254.683994,370.017324 248.435994,372.191991 249.507994,376.358657 C250.937327,379.801324 257.53866,381.25199 261.821327,381.25199 C296.267993,381.25199 332.671992,381.070657 371.223991,381.070657 C396.02799,381.070657 424.227989,381.25199 447.965322,381.070657 C459.742655,379.619991 469.733322,380.526657 477.053321,373.641324 C486.154655,362.406658 479.549321,340.845325 462.595988,341.025325 M333.743992,629.493318 C382.822657,630.037318 425.657323,631.849318 471.698655,632.391984 C483.301321,631.667984 479.197321,620.795984 480.978655,609.561318 C481.157321,601.226652 481.157321,593.797318 479.370655,589.266652 L478.655988,587.637319 C464.739988,569.517319 435.111989,584.737319 415.83999,583.831985 C360.691991,588.542652 298.050659,574.409319 245.939994,593.978652 C238.977327,597.963985 235.051994,603.401318 236.301327,610.647985 C237.909327,620.433318 246.118661,625.325318 255.219994,625.869318 C281.275993,627.681318 306.973326,628.586651 333.743992,629.493318 M910.727977,607.386651 C906.975977,598.507985 896.091978,597.783985 887.883978,598.870652 L886.990644,598.870652 C878.245311,600.682652 867.893312,611.735985 875.213311,621.339984 C884.493311,633.117318 915.72531,634.747984 912.331977,614.090651 C911.621311,610.466651 912.687977,612.822651 910.727977,607.386651 M915.367977,549.222653 L914.474644,547.954653 C910.549311,543.60532 901.269311,541.250653 895.913311,538.71332 C884.493311,535.451987 870.930645,544.14932 867.714645,555.382653 C865.931978,565.349319 872.711978,576.763986 881.278645,581.657319 C884.667978,583.287985 890.915978,584.374652 894.841311,584.555985 C896.985311,585.099985 897.342644,583.106652 899.303978,582.381319 C903.765311,581.475985 914.11731,579.119986 916.082644,572.415986 C922.326644,566.074653 921.43331,555.745319 915.367977,549.222653 M874.855978,195.885328 C866.289312,205.489328 867.178645,221.977328 878.245311,230.313328 C896.985311,247.889327 928.395977,225.963994 917.150644,202.590662 L916.439977,201.321328 C909.655977,185.375995 885.025311,179.395996 874.855978,195.885328 M865.397312,286.303993 L866.467978,287.571993 C884.850645,313.121326 926.430644,297.355993 913.223977,265.465327 C913.045311,260.21066 908.762644,256.949327 904.301311,254.23066 C898.767978,250.063994 893.059978,246.621327 886.097311,245.895994 C865.931978,243.721327 854.329312,270.901327 865.397312,286.303993 M911.621311,335.046658 C904.479977,301.523992 847.906645,310.583992 862.359978,346.642658 L863.253312,348.091991 C873.247978,366.211991 918.40131,359.507991 911.621311,335.046658 M885.207978,424.738656 C892.345311,424.558656 895.734644,422.202656 902.871977,421.295989 C917.686644,416.585323 916.79331,397.921323 914.11731,386.14399 L913.402644,385.05599 C900.018644,365.125324 874.141311,365.849324 864.861312,389.76799 C860.934645,405.169323 870.215978,423.833323 885.207978,424.738656 M911.978644,445.033322 C901.625311,430.175989 868.250645,437.603989 869.679978,457.898655 L869.858645,459.529322 C871.466645,469.675988 876.285311,480.005321 887.347978,479.823988 C900.911977,479.642655 920.90131,460.071988 911.978644,445.033322 M910.549311,496.311988 L909.655977,495.406654 C901.447977,487.614654 885.025311,484.353321 875.745311,492.869321 C868.250645,498.305321 863.431978,510.807987 869.501312,518.599987 C874.677311,523.854654 881.278645,528.747987 888.419978,529.10932 C891.987978,529.471987 895.734644,527.29732 898.053311,527.839987 C917.686644,530.37732 925.53731,509.177321 910.549311,496.311988 M907.690644,70.6773316 L907.159977,69.7706649 C889.670644,49.4773321 863.967978,70.1346649 864.503978,92.6026644 C865.575978,98.4013309 870.930645,103.291997 876.102645,107.461331 C883.243978,116.882664 896.985311,118.694664 904.479977,109.271997 C906.975977,105.286664 908.762644,101.299997 911.438644,96.9506642 C915.72531,89.5213311 913.402644,75.5693314 907.690644,70.6773316 M904.837311,126.123997 C889.313311,118.875997 870.930645,128.66133 865.575978,144.42533 C853.083979,180.665329 910.727977,185.375995 914.295977,153.485329 L914.295977,152.578663 C914.295977,144.062663 913.402644,129.747997 904.837311,126.123997 M438.147989,679.503983 C417.086656,681.67865 389.96399,679.685316 370.151991,680.41065 C362.299991,680.047983 358.549324,682.22265 360.334658,686.389316 C362.299991,691.826649 374.613324,694.181316 381.929324,693.818649 L557.183986,693.818649 C657.837317,693.818649 751.711981,693.818649 839.698646,693.455983 C858.791979,694.543983 876.102645,679.323983 876.102645,660.297317 C875.570645,657.215984 871.282645,656.491984 863.967978,656.31065 C854.329312,655.76665 848.621312,655.405317 842.015979,655.223984 C797.221313,654.499984 537.37332,656.129317 468.665322,654.499984 L468.486655,654.317317 C454.566655,652.505317 293.946659,654.135984 263.607993,653.591984 C249.329327,655.223984 292.695993,672.799983 297.514659,671.711983 C303.941326,676.967983 471.877322,665.733317 438.147989,679.503983 M428.867989,738.213315 L431.363989,738.213315 C515.599987,736.762648 598.590652,738.393315 681.217316,738.213315 C718.339982,735.857315 761.170648,743.103981 796.32798,733.682648 C805.965313,727.883982 823.811979,713.207982 831.842646,707.227982 C835.773312,703.785316 830.417313,705.415982 824.705313,705.053316 L360.155991,705.053316 C359.442658,705.053316 359.263991,705.415982 360.334658,706.502649 C373.362657,717.555982 406.917323,739.661315 428.867989,738.213315 M487.405321,791.665314 C488.651988,796.558647 498.825321,805.618647 503.822654,807.249313 C513.99732,807.430646 685.679983,807.249313 700.314649,807.430646 C708.881316,803.98798 722.981315,792.02798 730.831982,785.86798 C732.439982,783.51198 732.261315,782.786647 728.335982,782.786647 C708.881316,782.786647 685.679983,782.605314 666.04665,782.605314 L580.921319,782.605314 C553.615986,783.330647 525.41732,781.157314 499.897321,783.693314 C494.899988,784.961314 489.009321,787.67998 487.762654,790.398647 L487.405321,791.665314 Z M487.579988,776.082647 C567.715986,774.089314 662.47865,778.801314 738.862648,773.365314 C748.499981,772.821314 749.214648,769.378647 758.853314,762.493314 C769.558647,755.063981 779.731981,745.098648 761.706648,746.910648 L422.262656,746.910648 C421.547989,746.910648 420.837323,747.273315 421.194656,747.634648 C431.542656,757.238648 467.235988,777.351981 485.439988,776.082647 L487.579988,776.082647 Z M1062.24531,735.313315 L1060.28131,736.762648 C937.319977,817.578646 813.638646,898.391978 690.855983,979.206642 C650.701317,1005.84264 612.331985,1032.29731 571.105319,1060.92797 C558.791986,1070.34931 545.050653,1075.24131 531.66532,1064.55064 C362.121324,941.154643 182.403995,830.805313 11.2533331,709.401316 C4.65199988,704.329316 -3.20266659,699.073316 3.04533326,691.826649 C23.7493327,672.437317 47.1253322,634.566651 71.7559982,618.259985 C81.3946646,614.090651 95.3106643,610.829318 107.627997,605.394652 C118.690664,600.501318 131.539997,583.106652 142.427996,575.677319 C143.32133,574.953319 144.38933,574.227986 144.571996,573.139986 C144.92533,571.873319 144.38933,570.603986 143.85733,569.517319 C137.60933,555.563986 142.24933,527.839987 142.24933,512.438654 L142.24933,5.26399987 C142.963996,3.9959999 143.85733,3.09066659 144.92533,2.00266662 C145.818663,2.36533327 146.531996,2.5466666 147.603996,2.5466666 L873.426645,2.5466666 C874.141311,2.5466666 874.677311,2.18399995 875.213311,2.18399995 L877.887978,2.18399995 C878.781311,1.63999996 879.853311,1.09733331 880.921311,0.915999977 C881.993311,0.734666648 883.065311,0.553333319 884.314645,0.371999991 C886.454645,0.190666662 888.777311,0.371999991 890.737311,1.2773333 C895.913311,1.63999996 901.269311,2.18399995 906.445311,2.5466666 L944.455976,2.5466666 C946.242643,5.26399987 947.671976,8.52666645 948.38131,11.969333 L948.38131,312.939992 C947.671976,371.285324 947.314643,429.449323 948.38131,487.614654 L948.38131,606.843985 C948.38131,613.185318 953.20131,616.265318 958.019976,616.265318 C958.377309,616.265318 958.734643,616.627985 959.091976,616.627985 C960.342643,616.990651 961.587976,617.171985 962.838643,617.171985 C963.374643,617.353318 963.910643,617.353318 964.267976,617.171985 C964.803976,617.171985 965.335976,616.990651 965.693309,616.990651 C982.114642,628.043984 1008.34797,631.305318 1022.97997,644.351984 C1039.93731,660.47865 1052.60797,682.585316 1066.70797,700.159982 C1077.59197,713.389315 1075.98797,726.071982 1062.24531,735.313315" id="path28" fill="#000000" fill-rule="nonzero"></path>
                    </g>
                    <g id="g30" transform="translate(707.898382, 143.582530)">
                        <path d="M2.6666666,191.999995 C1.93199995,191.441329 0.649333317,188.466662 0.649333317,187.163995 L0.831999979,186.977329 L0.649333317,186.606662 C0.0999999975,183.258662 0.285333326,106.071997 0.285333326,54.9239986 C0.463999988,28.5133326 0.463999988,7.31066648 0.463999988,0.0559999986 L10.7253331,0.0559999986 L10.7253331,177.678662 L12.0079997,177.865329 C34.9066658,179.723996 57.8053319,181.211995 80.3373313,181.957329 L80.3373313,195.534662 L73.9253315,195.162662 C50.6626654,194.231995 26.482666,193.302662 2.6666666,191.999995" id="path32" fill="#000000" fill-rule="nonzero"></path>
                    </g>
                    <g id="g34" transform="translate(597.435718, 143.210263)">
                        <path d="M2.6666666,191.999995 C1.93199995,191.442662 0.65066665,188.466662 0.65066665,187.163995 L0.835999979,186.979995 L0.65066665,186.793329 C0.0999999975,183.258662 0.283999993,106.071997 0.283999993,55.1106653 C0.467999988,29.0706659 0.467999988,8.05333313 0.467999988,0.427999989 L10.7253331,0.427999989 L10.7253331,177.679996 L12.0079997,177.865329 C34.9066658,179.911996 57.8053319,181.211995 80.335998,182.142662 L80.335998,195.534662 L73.9253315,195.347995 C50.6613321,194.231995 26.4813327,193.302662 2.6666666,191.999995" id="path36" fill="#000000" fill-rule="nonzero"></path>
                    </g>
                    <g id="g38" transform="translate(592.405319, 380.589590)">
                        <path d="M199.999995,0 L1.46399996,0 C1.10399997,0 0.810666646,0.291999993 0.810666646,0.653333317 L0.810666646,283.407993 C0.810666646,283.769326 1.10399997,284.061326 1.46399996,284.061326 L199.999995,284.061326 C200.359995,284.061326 200.653328,283.769326 200.653328,283.407993 L200.653328,0.653333317 C200.653328,0.291999993 200.359995,0 199.999995,0" id="path40" fill="#000000" fill-rule="nonzero"></path>
                    </g>
                </g>
            </g>
        </g>
    </g>
</svg>