<svg xmlns="http://www.w3.org/2000/svg" xmlns:xlink="http://www.w3.org/1999/xlink" viewBox="0 0 3830 2682"><defs><path id="a" d="M0 1333.333h1333.333V0H0z"/><path id="c" d="M0 2682h2682V0H0z"/></defs><g fill="none" fill-rule="evenodd"><g transform="matrix(1 0 0 -1 2495.839 2007.048)"><g><path d="M1249.888 145.867c0-34.97-267.7-63.42-597.863-63.42-330.164 0-597.864 28.45-597.864 63.42 0 18.664 75.848 35.333 196.492 46.93 78.345 7.611 175.435 12.865 282.867 15.22-10.884-1.991-28.195-3.442-37.296-4.166-2.676-.181-4.819-.363-5.534-.363-27.128-3.08-54.076-3.08-80.846-2.717-13.384.181-26.77.361-40.155.361-7.316.363-14.988-.542-20.164-3.442-5.713-3.442-8.21-9.24-2.68-18.663 21.419-5.436 154.733-.181 205.063-1.993 15.524 1.993 32.477-5.98 35.51 9.06l.356 1.268c1.072 6.16 1.072 11.596 1.072 18.12v3.442h9.996V193.34c-1.429-24.28 17.132-21.198 36.051-21.198 69.779-.364 224.87.18 254.672 0 6.243.544 4.104 5.616 4.819 15.582v15.946c26.412-1.088 51.574-2.538 75.669-4.168-.536-2.536-.536-5.254-.179-7.972 1.072-6.704 6.78-12.322 12.85-15.04 5.886-2.718 12.313-4.348 18.918-3.624 3.926.362 7.672 1.268 11.063 3.624 4.283 2.718 7.32 6.522 9.101 11.234.894 2.718 1.072 5.255.536 7.79 11.778-.904 23.38-1.992 34.443-3.08 118.684-11.596 193.103-28.084 193.103-46.567" fill="#000" fill-rule="nonzero"/><path d="M460.823 191.925c-2.655-.18-4.781-.36-5.49-.36-26.915-3.056-53.653-3.056-80.214-2.696 27.624 1.438 56.308 2.338 85.704 3.056" fill="#000" fill-rule="nonzero"/><path d="M1119.07 890.774c-8.924-14.315-23.38-2.899-34.085 4.712-11.603 7.43-29.267 19.207-29.624 14.857.357-5.253 7.495-11.052 11.063-15.22 22.486-21.2 54.612-44.756 48.006-80.09-1.425-2.355-3.033.18-6.244 2.174-52.11 33.886-407.62 266.907-434.568 284.664-4.282 3.262-13.385 6.704-19.986 5.979-7.32.544-19.632-5.797-21.062-7.61-115.468-79.003-384.056-263.463-441.526-302.963-4.64-2.538-5.351-5.436-8.744-3.082-3.748 3.806-23.56 21.746-25.52 28.63 70.136 47.474 383.88 258.752 483.289 325.796 5.533 3.26 5.176 4.71 12.67 7.066 10.527 2.355 21.237-2.718 30.338-8.88 54.076-36.057 109.577-74.29 167.047-106.362 12.849-5.255 29.266-12.503 41.222-13.591-20.521 16.49-48.542 28.087-71.03 42.764-50.327 29.535-94.944 61.244-141.88 92.23-7.492 4.711-15.88 8.696-24.626 6.522-177.752-113.973-331.77-228.128-473.293-313.11-33.017-23.375-5.89 28.267 4.283 37.509 16.417 19.388 43.724 28.266 63.53 44.03 22.667 16.67 42.656 37.146 65.502 53.996 92.086 61.608 185.602 121.223 275.55 187.541 25.878 16.308 59.967 45.3 90.127 26.818 37.48-28.81 78.524-53.453 118.321-78.277 35.694-24.643 72.995-48.38 110.118-71.03 56.929-43.125 111.362-90.418 174.004-125.028 13.206-9.602 41.4-19.388 37.833-38.233l-.715-1.812Zm-97.264-703.05c-1.781-4.711-4.818-8.515-9.101-11.234-3.39-2.356-7.137-3.261-11.063-3.624-6.605-.725-13.032.907-18.918 3.624-6.07 2.719-11.778 8.335-12.85 15.04-.357 2.717-.357 5.435.179 7.972.357 1.993 1.068 3.987 2.14 5.98 1.964 3.261 4.997 6.16 8.387 7.792 4.64 2.355 9.638 2.536 14.457 1.63 3.037 0 5.89-.362 8.565-1.269 3.212-.542 6.25-1.45 8.746-3.08.178 0 .357-.181.536-.362 3.746-.726 6.958-3.987 7.316-7.974 1.249-2.174 1.964-4.348 2.142-6.704.536-2.536.358-5.073-.536-7.792m-127.422 0c-.715-9.965 1.425-15.038-4.82-15.582-29.802.18-184.892-.363-254.671 0-18.919 0-37.48-3.08-36.05 21.2v15.584c-.894 185.548 0 373.993-.18 560.084 1.073 7.792-2.68 23.918 4.998 24.46 90.479 6.888 183.107 0 273.765 0 6.606 0 11.424.182 14.099 0 2.144 0 3.037-2.172 3.216-8.515.175-7.248.175-14.495.175-21.744v-2.536c-.354-115.605-.532-232.477-.532-348.627V187.723Zm-305.538 17.759c0-6.524 0-11.96-1.072-18.12l-.357-1.268c-3.032-15.04-19.985-7.067-35.51-9.06-50.329 1.81-183.642-3.443-205.062 1.993-5.53 9.423-3.032 15.22 2.68 18.663 5.176 2.9 12.848 3.805 20.164 3.443 13.385 0 26.77-.18 40.155-.362 26.77-.364 53.718-.364 80.846 2.718.715 0 2.858.18 5.534.362 9.1.724 26.412 2.174 37.296 4.167 10.532 1.995 15.35 4.35 1.429 7.067-19.092 1.632-51.396-1.087-71.923-2.174-33.013.182-66.388 3.443-99.402 2.355-9.995-.905-21.955 7.25-17.668 18.301 2.497 6.704 11.598 7.974 18.56 8.698 83.344 9.604 146.878 2.718 215.408 7.248 13.205-.363 7.493-13.228 8.922-27.36-.357-4.894-.178-9.242 0-13.228v-3.443ZM414.128 658.659c47.117-.725 96.73 0 144.558-.906 9.103-1.448 20.702-.182 27.843-5.436 1.781-2.536 1.424-8.154 1.424-15.04-.536-9.422 1.43-15.22-1.067-21.38-9.281-1.812-152.233 2.898-179.717 3.442-16.065.544-34.8.182-51.223 1.45-13.737 0-18.198 14.496-12.848 25.366l.892 1.995c15.883 20.295 47.828 9.241 70.138 10.51M352.02 717.91c2.68.906 5.712 1.268 9.281 1.45 44.438-.726 89.234.542 133.85 1.993 26.948.544 54.969 2.9 81.917 1.268 3.927-.363 6.78-1.268 8.745-3.624 5.355-7.247 3.21-25.91 2.318-35.515l-.358-1.268c-16.417-5.98-191.493-.362-210.765-1.812-6.427 2.355-13.921 9.423-19.99 13.59-2.318 1.812-3.033 3.26.178 3.442 14.815 1.994 60.32-2.898 79.06 2.538 14.1 9.06 2.323 7.248-14.81 7.248-24.095.36-63.893-.182-74.602.36-5.887 1.089-1.425 8.156 5.176 10.33m235.932-379.25-.71-1.448c-16.6-16.307-48.01-7.428-69.605-9.784-54.433 1.268-107.973-1.812-161.156 2.537-8.03 1.992-15.345 9.965-8.03 15.039 19.277 5.436 43.545 1.449 64.072 2.354 8.924 0 21.414-.905 25.698 2.538 2.854 3.624-1.43 5.436-7.137 5.98-22.492 1.268-44.617-5.436-68.176 1.449-2.5 1.088-3.393 2.717-3.21 4.35.357 3.08 4.278 6.16 9.097 7.246 17.489 2.719 36.944-1.448 54.254-.361 51.223.36 103.87 1.63 155.27 1.63 14.096 1.268 10.884-17.033 10.526-28.085-.357-.907-.714-2.719-.893-3.444m-237.892-38.05c70.136 5.254 140.987.18 211.301 1.267 7.499-.362 17.315 2.899 23.738 0 4.997-3.805 3.032-25.368 1.96-31.166l-.71-1.268c-28.021-8.336-60.502-3.262-95.124-4.531-41.048.725-91.73-1.087-129.21.725-15.528 1.994-31.052 27.724-11.955 34.972m3.39 122.67c4.64 2.538 10.883 4.349 17.667 5.437 67.283 4.53 134.743 6.524 202.558 6.524 12.138-.544 13.925-8.879 14.456-21.201.357-7.974 1.072-16.852-.888-20.114l-.715-1.086c-6.07-2.9-12.853-3.804-20.348-6.886-11.42-2.898-21.057-1.27-32.477-1.63-34.627.18-66.751-.182-100.838-.182-28.02 1.45-54.61-4.166-81.381 5.618-13.921 6.522-11.241 28.085 1.965 33.52M588.132 586c-.715-8.154 1.608-18.664-2.854-26.274-7.141-5.074-20.88-2.72-28.377-2.538-56.037 0-111.185.546-166.155 1.812-14.452.726-35.51-2.717-45.505 9.06l-1.072 1.632c-3.568 6.342-.892 21.926 5.535 26.816 7.672 5.438 17.846 2.9 27.126 3.806 51.396 1.269 101.01-2.718 153.836 2.898 18.919 1.27 61.214 15.04 57.466-17.212m-1.072-136.444-1.246-1.268c-8.566-3.985-19.097 1.632-26.056 1.994-44.616 0-183.106 0-207.558.18-10.531 2.357-8.567 21.564-1.608 27.544 71.386 24.098 150.808 5.617 224.334 9.602 17.136-.542 15.707-25.73 12.134-38.052M571 502.465c-48.364-4.71-99.05.545-146.52 0-11.6 1.994-92.266-7.791-75.67 15.585l1.25 1.087c28.196 5.798 73.526-3.082 105.294 2.356 17.847 5.436-3.033 10.87-11.956 9.784-25.341.905-50.865-.724-76.384 0-3.926.18-10.174 2.356-9.102 6.522 1.429 3.443 8.03 4.894 12.313 4.894 34.447 0 70.85-.182 109.403-.182 24.804 0 53.004.182 76.74 0 11.778-1.45 21.769-.544 29.089-7.43 9.101-11.234 2.496-32.795-14.457-32.615M442.148 790.934c49.078.544 91.913 2.356 137.954 2.899 11.603-.724 7.499-11.596 9.28-22.831.179-8.335.179-15.764-1.608-20.295l-.714-1.63c-13.916-18.12-43.544-2.9-62.816-3.804-55.148 4.71-117.79-9.423-169.9 10.146-6.963 3.986-10.888 9.423-9.64 16.67 1.609 9.785 9.818 14.677 18.92 15.22 26.056 1.813 51.753 2.718 78.524 3.625m576.984-22.107c-3.752-8.878-14.636-9.602-22.844-8.516h-.894c-8.745 1.812-19.097 12.866-11.777 22.47 9.28 11.777 40.512 13.408 37.119-7.25-.711-3.624.356-1.268-1.604-6.704m4.64-58.164-.894-1.268c-3.925-4.35-13.205-6.704-18.561-9.241-11.42-3.261-24.983 5.436-28.199 16.67-1.782 9.966 4.998 21.38 13.564 26.274 3.39 1.63 9.638 2.717 13.563 2.899 2.144.544 2.501-1.45 4.463-2.175 4.46-.905 14.813-3.261 16.778-9.965 6.244-6.342 5.35-16.671-.714-23.194M983.26 357.326c-8.567 9.604-7.678 26.092 3.389 34.428 18.74 17.576 50.15-4.35 38.905-27.723l-.71-1.27c-6.784-15.944-31.415-21.924-41.584-5.435m-9.46 90.419 1.072 1.268c18.382 25.549 59.962 9.784 46.756-22.107-.18-5.255-4.462-8.516-8.923-11.235-5.533-4.166-11.241-7.61-18.204-8.334-20.165-2.175-31.768 25.005-20.7 40.408m46.224 48.742c-7.141-33.522-63.715-24.462-49.261 11.596l.893 1.45c9.995 18.12 55.148 11.416 48.368-13.046m-26.413 89.692c7.137-.18 10.526-2.536 17.664-3.442 14.814-4.711 13.92-23.375 11.245-35.152l-.715-1.088c-13.384-19.931-39.261-19.207-48.541 4.712-3.927 15.4 5.355 34.065 20.347 34.97m26.77 20.295c-10.353-14.857-43.728-7.43-42.298 12.865l.178 1.63c1.608 10.148 6.427 20.477 17.49 20.296 13.564-.182 33.553-19.752 24.63-34.791m-1.43 51.279-.892-.906c-8.208-7.792-24.631-11.053-33.911-2.537-7.495 5.436-12.313 17.939-6.244 25.73 5.176 5.255 11.777 10.149 18.919 10.51 3.568.363 7.314-1.812 9.633-1.27 19.633 2.538 27.484-18.662 12.496-31.527m-2.859-425.635-.53-.907c-17.49-20.293-43.192.364-42.656 22.832 1.072 5.799 6.426 10.69 11.598 14.859 7.142 9.421 20.883 11.233 28.378 1.81 2.496-3.985 4.282-7.971 6.958-12.32 4.287-7.43 1.964-21.382-3.748-26.274m-2.853 55.447c-15.524-7.248-33.907 2.537-39.261 18.3-12.492 36.24 45.152 40.952 48.72 9.06v-.906c0-8.516-.894-22.83-9.46-26.454m-466.688 553.38c-21.062 2.174-48.184.18-67.996.906-7.852-.362-11.603 1.812-9.818 5.979 1.966 5.437 14.279 7.792 21.595 7.43h175.255c100.653 0 194.528 0 282.514-.363 19.094 1.088 36.404-14.132 36.404-33.16-.532-3.08-4.82-3.804-12.134-3.986-9.64-.544-15.347-.905-21.952-1.086-44.795-.724-304.643.905-373.351-.724l-.179-.183c-13.92-1.812-174.54-.181-204.878-.725-14.28 1.632 29.088 19.208 33.906 18.12 6.427 5.256 174.363-5.98 140.634 7.792m-9.28 58.709h2.496c84.236-1.45 167.226.18 249.853 0 37.123-2.356 79.953 4.89 115.11-4.53 9.638-5.8 27.485-20.475 35.515-26.455 3.93-3.443-1.425-1.812-7.137-2.175h-464.55c-.713 0-.891.363.18 1.45 13.027 11.053 46.582 33.158 68.533 31.71m58.537 53.452c1.247 4.893 11.42 13.953 16.417 15.584 10.175.181 181.858 0 196.492.181 8.567-3.442 22.667-15.402 30.518-21.562 1.608-2.356 1.429-3.082-2.496-3.082-19.455 0-42.656-.181-62.29-.181h-85.125c-27.305.725-55.504-1.448-81.024 1.088-4.997 1.268-10.888 3.987-12.135 6.705l-.357 1.267Zm.175-15.583c80.136-1.993 174.898 2.719 251.282-2.717 9.638-.544 10.352-3.987 19.99-10.872 10.706-7.43 20.88-17.395 2.854-15.583H530.666c-.714 0-1.425.363-1.068.724 10.348 9.604 46.042 29.718 64.246 28.448h2.14Zm574.665-40.77-1.964 1.45c-122.961 80.816-246.643 161.63-369.425 242.444-40.155 26.636-78.524 53.09-119.751 81.721-12.313 9.422-26.055 14.314-39.44 3.623-169.544-123.396-349.261-233.745-520.412-355.15-6.601-5.071-14.456-10.327-8.208-17.574 20.704-19.39 44.08-57.26 68.71-73.566 9.64-4.17 23.555-7.431 35.873-12.866 11.062-4.893 23.912-22.288 34.8-29.717.893-.724 1.96-1.45 2.144-2.537.353-1.267-.183-2.536-.715-3.623-6.248-13.953-1.608-41.677-1.608-57.079V166.705c.715-1.268 1.608-2.174 2.676-3.262.893.363 1.607.544 2.679.544H981.83c.715 0 1.25-.362 1.787-.362h2.675c.893-.544 1.965-1.087 3.033-1.268 1.072-.182 2.144-.363 3.393-.544 2.14-.182 4.463 0 6.423.905 5.176.363 10.532.907 15.708 1.27h38.01c1.787 2.717 3.217 5.98 3.926 9.422v300.97c-.71 58.346-1.067 116.51 0 174.675v119.23c0 6.34 4.82 9.42 9.639 9.42.357 0 .714.364 1.072.364 1.25.362 2.496.544 3.746.544.536.18 1.072.18 1.43 0 .536 0 1.068-.182 1.425-.182 16.421 11.054 42.655 14.315 57.287 27.362 16.957 16.126 29.628 38.233 43.728 55.808 10.884 13.229 9.28 25.912-4.463 35.153" fill="#000" fill-rule="nonzero"/><path d="M763.898 416.916c-.734-.559-2.017-3.533-2.017-4.836l.183-.187-.183-.37c-.55-3.348-.364-80.535-.364-131.683.179-26.41.179-47.613.179-54.868h10.261v177.623l1.283.186c22.898 1.859 45.797 3.347 68.329 4.092v13.578l-6.412-.372c-23.263-.931-47.443-1.86-71.259-3.163M653.436 416.544c-.735-.558-2.016-3.534-2.016-4.836l.185-.184-.185-.187c-.551-3.535-.367-80.721-.367-131.683.184-26.04.184-47.057.184-54.682h10.257v177.252l1.283.185c22.899 2.047 45.797 3.347 68.328 4.277v13.392l-6.41-.186c-23.265-1.116-47.445-2.046-71.26-3.348M845.739 461.923H647.203a.654.654 0 0 0-.654.653v282.755c0 .361.294.653.654.653h198.536c.36 0 .653-.292.653-.653V462.576a.654.654 0 0 0-.653-.653" fill="#000" fill-rule="nonzero"/></g></g><g transform="matrix(1 0 0 -1 0 2682)"><g><path d="M1447.002 1508.64h23.556v-254.07h-23.556c-6.573 28.882-18.444 54.38-35.609 76.487-65.373-72.03-148.824-108.047-250.354-108.047-107.373 0-195.147 33.163-263.198 99.489-68.173 66.326-102.2 154.048-102.2 263.166 0 71.673 15.703 139.131 47.112 202.485 31.409 63.234 75.236 110.247 131.477 140.913 56.244 30.666 117.965 46.001 185.165 46.001 55.512 0 105.792-11.173 150.895-33.46 45.103-22.288 78.827-46.951 101.103-74.053 15.706 30.31 25.2 61.691 28.489 94.14h24.103l6.573-274.934h-23.556c-16.435 97.708-49.973 165.638-100.556 203.795-50.582 38.154-107.615 57.23-171.165 57.23-77.789 0-139.633-30.842-185.407-92.533-45.894-61.692-68.782-149.948-68.782-264.77 0-108.76 25.017-192.144 75.053-250.091 50.032-57.945 112.303-86.89 186.806-86.89 39.81 0 80.53 9.45 122.165 28.35 41.636 18.9 74.565 50.875 98.913 95.983 24.226 45.109 38.59 88.731 42.973 130.81M1594.747 1453.547c0-77.738 13.152-132.236 39.455-163.438 26.302-31.203 63.164-46.775 110.584-46.775 48.53 0 85.639 15.572 111.386 46.775 25.747 31.202 38.65 85.7 38.65 163.438 0 77.024-12.78 131.938-38.341 164.744-25.562 32.81-62.794 49.212-111.695 49.212-48.53 0-85.7-16.285-111.389-48.973-25.809-32.567-38.65-87.602-38.65-164.983m-92.245 2.674c0 67.04 23.339 123.085 70.017 168.252 46.68 45.05 104.101 67.635 172.267 67.635 68.536 0 126.143-22.644 172.82-67.932 46.678-45.286 70.02-101.273 70.02-167.955 0-73.814-23.712-131.88-71.13-174.075-47.42-42.317-104.657-63.416-171.71-63.416-67.055 0-124.23 21.456-171.404 64.486-47.294 42.91-70.88 100.618-70.88 173.005M2328.674 1547.687c1.11 8.202 1.668 15.513 1.668 21.931 0 31.38-9.572 55.686-28.649 73.042-19.08 17.234-42.48 25.913-70.266 25.913-67.425 0-107.62-40.297-120.585-120.886h217.832Zm97.247-21.394h-317.302c-1.483-21.04-2.224-36.73-2.224-47.072 0-77.024 12.533-134.91 37.479-173.541 25.068-38.75 62.361-58.066 112.003-58.066 67.425 0 115.216 29.063 143.371 87.187h26.673c-11.855-36.37-35.378-64.84-70.574-85.344-35.194-20.445-73.535-30.725-115.029-30.725-38.527 0-74.956 9.33-109.162 28.11-34.33 18.661-62.362 45.168-84.22 79.4-21.856 34.234-32.785 75.778-32.785 124.63 0 69.18 21.115 126.65 63.348 172.53 42.234 45.764 95.024 68.706 158.373 68.706 59.645 0 105.77-17.474 138.37-52.42 32.599-34.947 49.825-72.744 51.679-113.395M238.025 1208.508h-19.224l2.926 147.934H771.71l2.926-147.934h-17.97c-6.41 40.539-15.185 69.783-26.329 87.833-11.146 17.95-23.127 29.04-35.941 33.074-12.817 4.136-34.69 6.153-65.615 6.153h-91.108V901.296c0-48.102 1.07-79.715 3.111-94.841 2.138-15.127 7.757-26.319 16.95-33.579 9.194-7.26 26.47-10.891 51.822-10.891h27.585V741.11H354.625v20.874h29.255c24.24 0 41.003 3.328 50.382 9.982 9.287 6.657 15.279 17.041 17.926 31.06 2.645 14.118 3.994 46.841 3.994 98.269v434.272h-84.003c-36.5 0-61.018-1.915-73.554-5.648-12.538-3.83-24.334-15.226-35.338-34.284-11.007-19.061-19.41-48.102-25.262-87.128" fill="#000" fill-rule="nonzero"/><path d="m894.09 977.536-52.226-19.967c-82.413-31.763-123.616-71.698-123.616-119.797 0-19.061 5.27-34.44 15.81-46.085 10.54-11.648 24.277-17.446 41.206-17.446 15.014 0 32.423 4.688 52.227 14.067 19.804 9.379 42.003 23.446 66.6 42.2v147.028Zm138.95-158.825h17.727c-2.875-51.73-29.705-77.596-80.494-77.596-21.722 0-38.916 5.445-51.481 16.336-12.67 10.892-20.87 27.075-24.702 48.555-31.942-21.48-61.117-37.663-87.417-48.555-26.404-10.891-49.936-16.336-70.697-16.336-26.515 0-49.352 7.26-68.517 21.78-19.166 14.521-28.749 33.732-28.749 57.632 0 31.159 16.025 58.387 48.18 81.68 32.05 23.296 76.396 45.985 132.933 68.069l74.267 28.587v18.152c0 25.715-1.756 44.32-5.27 55.815-3.513 11.498-12.619 21.784-27.31 30.86-14.695 9.073-34.02 13.61-57.977 13.61-47.914 0-74.587-15.123-80.015-45.376-5.112-30.86-18.527-46.286-40.249-46.286-19.485 0-29.226 8.773-29.226 26.318 0 17.246 12.936 35.749 38.809 55.563 25.873 19.818 66.122 29.749 120.743 29.749 40.568 0 72.03-6.05 94.39-18.152 22.36-12.1 37.106-25.865 44.348-41.294 7.134-15.427 10.754-39.026 10.754-70.79V856.83c0-35.094 1.915-57.63 5.748-67.613 3.835-9.985 12.139-14.976 24.916-14.976 21.083 0 34.18 14.823 39.288 44.47M1184.663 745.203h-25.452l-127.703 298.137c-12.582 28.74-22.53 47.042-29.843 54.908-7.314 7.864-19.31 12.101-35.984 12.705v20.874h162.37v-20.874c-17.845 0-30.035-1.513-36.668-4.538-6.533-3.025-9.848-8.773-9.848-17.243 0-6.656 5.852-22.84 17.554-48.555l96.983-225.532 87.332 201.027c13.75 32.069 20.624 52.943 20.624 62.622 0 20.27-14.627 31.01-43.883 32.219v20.874h121.12v-20.874c-14.92-.907-27.45-7.362-37.497-19.31-10.141-11.952-24.232-38.774-42.373-80.522l-116.732-265.918ZM1591.052 1024.28c.877 6.958 1.317 13.161 1.317 18.606 0 26.621-7.558 47.243-22.625 61.967-15.068 14.622-33.547 21.982-55.49 21.982-53.247 0-84.988-34.185-95.228-102.555h172.026Zm76.8-18.151h-250.583c-1.169-17.849-1.754-31.16-1.754-39.933 0-65.344 9.897-114.454 29.596-147.228 19.799-32.873 49.25-49.26 88.453-49.26 53.245 0 90.986 24.655 113.22 73.967h21.067c-9.363-30.857-27.94-55.008-55.734-72.404-27.794-17.344-58.074-26.069-90.842-26.069-30.425 0-59.195 7.918-86.208 23.851-27.11 15.832-49.247 38.318-66.508 67.361-17.261 29.041-25.892 64.285-25.892 105.73 0 58.69 16.674 107.447 50.027 146.373 33.354 38.822 75.043 58.285 125.07 58.285 47.104 0 83.528-14.823 109.273-44.47 25.747-29.647 39.35-61.715 40.814-96.203M1818.102 1042.427c9.948 26.925 26.088 49.462 48.518 67.614 22.333 18.151 44.226 27.227 65.583 27.227 19.307 0 34.522-6.2 45.64-18.605 11.116-12.404 16.676-25.109 16.676-38.119 0-8.773-2.878-16.336-8.534-22.687-5.753-6.354-12.678-9.53-20.869-9.53-14.63 0-25.747 11.193-33.353 33.58-5.265 15.126-13.166 22.69-23.698 22.69-12.579 0-27.646-8.876-45.2-26.523-17.554-17.747-28.818-36.1-33.79-55.158-4.976-19.061-7.462-45.23-7.462-78.505v-66.253c0-39.632.488-64.588 1.513-74.874 1.022-10.288 5.216-18.152 12.53-23.599 7.314-5.444 20.332-8.166 39.058-8.166H1887v-20.874h-190.896v20.874h9.215c17.554 0 30.036 2.52 37.545 7.46 7.413 5.043 11.898 12.051 13.362 21.127 1.462 9.076 2.194 35.094 2.194 78.052V982.98c0 39.935-.537 64.942-1.513 75.128-1.073 10.084-5.216 17.948-12.53 23.596-7.314 5.547-20.332 8.37-39.058 8.37h-9.215v20.419c27.5 3.328 63.485 12.254 107.955 26.774 8.484-23.899 13.166-55.512 14.043-94.84M2110.589 1137.268h11.849c6.73-18.755 10.532-44.32 11.41-76.689 21.064 25.715 43.153 44.924 66.266 57.631 23.11 12.705 47.249 19.058 72.409 19.058 28.67 0 52.124-6.2 70.459-18.605 18.237-12.404 30.035-27.63 35.303-45.631 5.264-18 7.898-44.218 7.898-78.706V878.158c0-42.958.732-69.126 2.194-78.505 1.464-9.38 6.048-16.438 13.799-21.075 7.754-4.74 22.04-7.06 42.813-7.06v-20.873h-183.876v20.874h8.339c21.064 0 34.815 3.175 41.249 9.529 6.437 6.353 10.095 13.764 10.972 22.236.877 8.47 1.317 33.429 1.317 74.874v119.8c0 29.343-1.414 50.268-4.195 62.873-2.778 12.504-10.24 23.648-22.33 33.327-12.192 9.682-27.6 14.523-46.324 14.523-21.356 0-41.788-6.606-61.243-19.716-19.455-13.208-37.79-32.924-55.05-59.242V878.158c0-42.958.78-69.126 2.389-78.505 1.61-9.38 6.29-16.438 14.043-21.075 7.753-4.74 22.185-7.06 43.25-7.06v-20.873h-181.682v20.874c20.188 0 34.23 2.116 42.13 6.353 7.9 4.235 12.776 10.688 14.678 19.26 1.901 8.673 2.875 35.646 2.875 81.026V988.88c0 43.261-.829 69.48-2.39 78.706-1.657 9.226-6.337 16.186-14.043 20.874-7.802 4.688-22.185 7.06-43.25 7.06v20.873c32.182 3.632 65.095 10.589 98.74 20.874" fill="#000" fill-rule="nonzero"/></g></g></g></svg>