<svg width="100%" height="100%" viewBox="0 0 500 500" version="1.1" xmlns="http://www.w3.org/2000/svg" xmlns:xlink="http://www.w3.org/1999/xlink">
    <title>instagram</title>
    <g id="Page-1" stroke="none" stroke-width="1" fill="none" fill-rule="evenodd">
        <g id="instagram" fill="#000000" fill-rule="nonzero">
            <path d="M250,45.0625926 C316.75,45.0625926 324.666667,45.3125926 351.042593,46.5209259 C418.790741,49.6042593 450.437037,81.75 453.52037,149 C454.72963,175.354074 454.957407,183.270926 454.957407,250.02037 C454.957407,316.792593 454.707407,324.687037 453.52037,351.042593 C450.416667,418.22963 418.853704,450.437037 351.042593,453.52037 C324.666667,454.72963 316.792593,454.97963 250,454.97963 C183.25,454.97963 175.333333,454.72963 148.979259,453.52037 C81.0625926,450.416667 49.5833333,418.125926 46.5,351.02037 C45.2916667,324.666667 45.0416667,316.77037 45.0416667,250 C45.0416667,183.25 45.3125926,175.354074 46.5,148.979259 C49.6042593,81.75 81.1666667,49.5833333 148.979259,46.5 C175.354074,45.3125926 183.25,45.0625926 250,45.0625926 Z M250,0 C182.104074,0 173.604259,0.291666667 146.937593,1.5 C56.1459259,5.66666667 5.6875,56.0416667 1.52083333,146.916667 C0.291666667,173.604259 0,182.104074 0,250 C0,317.896296 0.291666667,326.416667 1.5,353.083333 C5.66666667,443.874074 56.0416667,494.333333 146.916667,498.5 C173.604259,499.707407 182.104074,500 250,500 C317.896296,500 326.416667,499.707407 353.083333,498.5 C443.792593,494.333333 494.375926,443.957407 498.47963,353.083333 C499.707407,326.416667 500,317.896296 500,250 C500,182.104074 499.707407,173.604259 498.5,146.937593 C494.416667,56.2290741 443.97963,5.6875 353.103704,1.52083333 C326.416667,0.291666667 317.896296,0 250,0 L250,0 Z M250,121.625 C179.104259,121.625 121.625,179.104259 121.625,250 C121.625,320.896296 179.104259,378.396296 250,378.396296 C320.896296,378.396296 378.375926,320.916667 378.375926,250 C378.375926,179.104259 320.896296,121.625 250,121.625 Z M250,333.333333 C203.97963,333.333333 166.666667,296.040741 166.666667,250 C166.666667,203.97963 203.97963,166.666667 250,166.666667 C296.02037,166.666667 333.333333,203.97963 333.333333,250 C333.333333,296.040741 296.02037,333.333333 250,333.333333 Z M383.459259,86.5625926 C366.875926,86.5625926 353.437037,100 353.437037,116.562407 C353.437037,133.125 366.875926,146.562407 383.459259,146.562407 C400.02037,146.562407 413.437037,133.125 413.437037,116.562407 C413.437037,100 400.02037,86.5625926 383.459259,86.5625926 Z" id="Shape"></path>
        </g>
    </g>
</svg>