<svg xmlns="http://www.w3.org/2000/svg" xmlns:xlink="http://www.w3.org/1999/xlink" viewBox="0 0 1335 1335"><defs><path id="a" d="M0 1333.333h1333.333V0H0z"/></defs><g transform="matrix(1 0 0 -1 .839 1334.048)" fill="none" fill-rule="evenodd"><g><path d="M1249.888 145.867c0-34.97-267.7-63.42-597.863-63.42-330.164 0-597.864 28.45-597.864 63.42 0 18.664 75.848 35.333 196.492 46.93 78.345 7.611 175.435 12.865 282.867 15.22-10.884-1.991-28.195-3.442-37.296-4.166-2.676-.181-4.819-.363-5.534-.363-27.128-3.08-54.076-3.08-80.846-2.717-13.384.181-26.77.361-40.155.361-7.316.363-14.988-.542-20.164-3.442-5.713-3.442-8.21-9.24-2.68-18.663 21.419-5.436 154.733-.181 205.063-1.993 15.524 1.993 32.477-5.98 35.51 9.06l.356 1.268c1.072 6.16 1.072 11.596 1.072 18.12v3.442h9.996V193.34c-1.429-24.28 17.132-21.198 36.051-21.198 69.779-.364 224.87.18 254.672 0 6.243.544 4.104 5.616 4.819 15.582v15.946c26.412-1.088 51.574-2.538 75.669-4.168-.536-2.536-.536-5.254-.179-7.972 1.072-6.704 6.78-12.322 12.85-15.04 5.886-2.718 12.313-4.348 18.918-3.624 3.926.362 7.672 1.268 11.063 3.624 4.283 2.718 7.32 6.522 9.101 11.234.894 2.718 1.072 5.255.536 7.79 11.778-.904 23.38-1.992 34.443-3.08 118.684-11.596 193.103-28.084 193.103-46.567" fill="#000" fill-rule="nonzero"/><path d="M460.823 191.925c-2.655-.18-4.781-.36-5.49-.36-26.915-3.056-53.653-3.056-80.214-2.696 27.624 1.438 56.308 2.338 85.704 3.056" fill="#000" fill-rule="nonzero"/><path d="M1119.07 890.774c-8.924-14.315-23.38-2.899-34.085 4.712-11.603 7.43-29.267 19.207-29.624 14.857.357-5.253 7.495-11.052 11.063-15.22 22.486-21.2 54.612-44.756 48.006-80.09-1.425-2.355-3.033.18-6.244 2.174-52.11 33.886-407.62 266.907-434.568 284.664-4.282 3.262-13.385 6.704-19.986 5.979-7.32.544-19.632-5.797-21.062-7.61-115.468-79.003-384.056-263.463-441.526-302.963-4.64-2.538-5.351-5.436-8.744-3.082-3.748 3.806-23.56 21.746-25.52 28.63 70.136 47.474 383.88 258.752 483.289 325.796 5.533 3.26 5.176 4.71 12.67 7.066 10.527 2.355 21.237-2.718 30.338-8.88 54.076-36.057 109.577-74.29 167.047-106.362 12.849-5.255 29.266-12.503 41.222-13.591-20.521 16.49-48.542 28.087-71.03 42.764-50.327 29.535-94.944 61.244-141.88 92.23-7.492 4.711-15.88 8.696-24.626 6.522-177.752-113.973-331.77-228.128-473.293-313.11-33.017-23.375-5.89 28.267 4.283 37.509 16.417 19.388 43.724 28.266 63.53 44.03 22.667 16.67 42.656 37.146 65.502 53.996 92.086 61.608 185.602 121.223 275.55 187.541 25.878 16.308 59.967 45.3 90.127 26.818 37.48-28.81 78.524-53.453 118.321-78.277 35.694-24.643 72.995-48.38 110.118-71.03 56.929-43.125 111.362-90.418 174.004-125.028 13.206-9.602 41.4-19.388 37.833-38.233l-.715-1.812Zm-97.264-703.05c-1.781-4.711-4.818-8.515-9.101-11.234-3.39-2.356-7.137-3.261-11.063-3.624-6.605-.725-13.032.907-18.918 3.624-6.07 2.719-11.778 8.335-12.85 15.04-.357 2.717-.357 5.435.179 7.972.357 1.993 1.068 3.987 2.14 5.98 1.964 3.261 4.997 6.16 8.387 7.792 4.64 2.355 9.638 2.536 14.457 1.63 3.037 0 5.89-.362 8.565-1.269 3.212-.542 6.25-1.45 8.746-3.08.178 0 .357-.181.536-.362 3.746-.726 6.958-3.987 7.316-7.974 1.249-2.174 1.964-4.348 2.142-6.704.536-2.536.358-5.073-.536-7.792m-127.422 0c-.715-9.965 1.425-15.038-4.82-15.582-29.802.18-184.892-.363-254.671 0-18.919 0-37.48-3.08-36.05 21.2v15.584c-.894 185.548 0 373.993-.18 560.084 1.073 7.792-2.68 23.918 4.998 24.46 90.479 6.888 183.107 0 273.765 0 6.606 0 11.424.182 14.099 0 2.144 0 3.037-2.172 3.216-8.515.175-7.248.175-14.495.175-21.744v-2.536c-.354-115.605-.532-232.477-.532-348.627V187.723Zm-305.538 17.759c0-6.524 0-11.96-1.072-18.12l-.357-1.268c-3.032-15.04-19.985-7.067-35.51-9.06-50.329 1.81-183.642-3.443-205.062 1.993-5.53 9.423-3.032 15.22 2.68 18.663 5.176 2.9 12.848 3.805 20.164 3.443 13.385 0 26.77-.18 40.155-.362 26.77-.364 53.718-.364 80.846 2.718.715 0 2.858.18 5.534.362 9.1.724 26.412 2.174 37.296 4.167 10.532 1.995 15.35 4.35 1.429 7.067-19.092 1.632-51.396-1.087-71.923-2.174-33.013.182-66.388 3.443-99.402 2.355-9.995-.905-21.955 7.25-17.668 18.301 2.497 6.704 11.598 7.974 18.56 8.698 83.344 9.604 146.878 2.718 215.408 7.248 13.205-.363 7.493-13.228 8.922-27.36-.357-4.894-.178-9.242 0-13.228v-3.443ZM414.128 658.659c47.117-.725 96.73 0 144.558-.906 9.103-1.448 20.702-.182 27.843-5.436 1.781-2.536 1.424-8.154 1.424-15.04-.536-9.422 1.43-15.22-1.067-21.38-9.281-1.812-152.233 2.898-179.717 3.442-16.065.544-34.8.182-51.223 1.45-13.737 0-18.198 14.496-12.848 25.366l.892 1.995c15.883 20.295 47.828 9.241 70.138 10.51M352.02 717.91c2.68.906 5.712 1.268 9.281 1.45 44.438-.726 89.234.542 133.85 1.993 26.948.544 54.969 2.9 81.917 1.268 3.927-.363 6.78-1.268 8.745-3.624 5.355-7.247 3.21-25.91 2.318-35.515l-.358-1.268c-16.417-5.98-191.493-.362-210.765-1.812-6.427 2.355-13.921 9.423-19.99 13.59-2.318 1.812-3.033 3.26.178 3.442 14.815 1.994 60.32-2.898 79.06 2.538 14.1 9.06 2.323 7.248-14.81 7.248-24.095.36-63.893-.182-74.602.36-5.887 1.089-1.425 8.156 5.176 10.33m235.932-379.25-.71-1.448c-16.6-16.307-48.01-7.428-69.605-9.784-54.433 1.268-107.973-1.812-161.156 2.537-8.03 1.992-15.345 9.965-8.03 15.039 19.277 5.436 43.545 1.449 64.072 2.354 8.924 0 21.414-.905 25.698 2.538 2.854 3.624-1.43 5.436-7.137 5.98-22.492 1.268-44.617-5.436-68.176 1.449-2.5 1.088-3.393 2.717-3.21 4.35.357 3.08 4.278 6.16 9.097 7.246 17.489 2.719 36.944-1.448 54.254-.361 51.223.36 103.87 1.63 155.27 1.63 14.096 1.268 10.884-17.033 10.526-28.085-.357-.907-.714-2.719-.893-3.444m-237.892-38.05c70.136 5.254 140.987.18 211.301 1.267 7.499-.362 17.315 2.899 23.738 0 4.997-3.805 3.032-25.368 1.96-31.166l-.71-1.268c-28.021-8.336-60.502-3.262-95.124-4.531-41.048.725-91.73-1.087-129.21.725-15.528 1.994-31.052 27.724-11.955 34.972m3.39 122.67c4.64 2.538 10.883 4.349 17.667 5.437 67.283 4.53 134.743 6.524 202.558 6.524 12.138-.544 13.925-8.879 14.456-21.201.357-7.974 1.072-16.852-.888-20.114l-.715-1.086c-6.07-2.9-12.853-3.804-20.348-6.886-11.42-2.898-21.057-1.27-32.477-1.63-34.627.18-66.751-.182-100.838-.182-28.02 1.45-54.61-4.166-81.381 5.618-13.921 6.522-11.241 28.085 1.965 33.52M588.132 586c-.715-8.154 1.608-18.664-2.854-26.274-7.141-5.074-20.88-2.72-28.377-2.538-56.037 0-111.185.546-166.155 1.812-14.452.726-35.51-2.717-45.505 9.06l-1.072 1.632c-3.568 6.342-.892 21.926 5.535 26.816 7.672 5.438 17.846 2.9 27.126 3.806 51.396 1.269 101.01-2.718 153.836 2.898 18.919 1.27 61.214 15.04 57.466-17.212m-1.072-136.444-1.246-1.268c-8.566-3.985-19.097 1.632-26.056 1.994-44.616 0-183.106 0-207.558.18-10.531 2.357-8.567 21.564-1.608 27.544 71.386 24.098 150.808 5.617 224.334 9.602 17.136-.542 15.707-25.73 12.134-38.052M571 502.465c-48.364-4.71-99.05.545-146.52 0-11.6 1.994-92.266-7.791-75.67 15.585l1.25 1.087c28.196 5.798 73.526-3.082 105.294 2.356 17.847 5.436-3.033 10.87-11.956 9.784-25.341.905-50.865-.724-76.384 0-3.926.18-10.174 2.356-9.102 6.522 1.429 3.443 8.03 4.894 12.313 4.894 34.447 0 70.85-.182 109.403-.182 24.804 0 53.004.182 76.74 0 11.778-1.45 21.769-.544 29.089-7.43 9.101-11.234 2.496-32.795-14.457-32.615M442.148 790.934c49.078.544 91.913 2.356 137.954 2.899 11.603-.724 7.499-11.596 9.28-22.831.179-8.335.179-15.764-1.608-20.295l-.714-1.63c-13.916-18.12-43.544-2.9-62.816-3.804-55.148 4.71-117.79-9.423-169.9 10.146-6.963 3.986-10.888 9.423-9.64 16.67 1.609 9.785 9.818 14.677 18.92 15.22 26.056 1.813 51.753 2.718 78.524 3.625m576.984-22.107c-3.752-8.878-14.636-9.602-22.844-8.516h-.894c-8.745 1.812-19.097 12.866-11.777 22.47 9.28 11.777 40.512 13.408 37.119-7.25-.711-3.624.356-1.268-1.604-6.704m4.64-58.164-.894-1.268c-3.925-4.35-13.205-6.704-18.561-9.241-11.42-3.261-24.983 5.436-28.199 16.67-1.782 9.966 4.998 21.38 13.564 26.274 3.39 1.63 9.638 2.717 13.563 2.899 2.144.544 2.501-1.45 4.463-2.175 4.46-.905 14.813-3.261 16.778-9.965 6.244-6.342 5.35-16.671-.714-23.194M983.26 357.326c-8.567 9.604-7.678 26.092 3.389 34.428 18.74 17.576 50.15-4.35 38.905-27.723l-.71-1.27c-6.784-15.944-31.415-21.924-41.584-5.435m-9.46 90.419 1.072 1.268c18.382 25.549 59.962 9.784 46.756-22.107-.18-5.255-4.462-8.516-8.923-11.235-5.533-4.166-11.241-7.61-18.204-8.334-20.165-2.175-31.768 25.005-20.7 40.408m46.224 48.742c-7.141-33.522-63.715-24.462-49.261 11.596l.893 1.45c9.995 18.12 55.148 11.416 48.368-13.046m-26.413 89.692c7.137-.18 10.526-2.536 17.664-3.442 14.814-4.711 13.92-23.375 11.245-35.152l-.715-1.088c-13.384-19.931-39.261-19.207-48.541 4.712-3.927 15.4 5.355 34.065 20.347 34.97m26.77 20.295c-10.353-14.857-43.728-7.43-42.298 12.865l.178 1.63c1.608 10.148 6.427 20.477 17.49 20.296 13.564-.182 33.553-19.752 24.63-34.791m-1.43 51.279-.892-.906c-8.208-7.792-24.631-11.053-33.911-2.537-7.495 5.436-12.313 17.939-6.244 25.73 5.176 5.255 11.777 10.149 18.919 10.51 3.568.363 7.314-1.812 9.633-1.27 19.633 2.538 27.484-18.662 12.496-31.527m-2.859-425.635-.53-.907c-17.49-20.293-43.192.364-42.656 22.832 1.072 5.799 6.426 10.69 11.598 14.859 7.142 9.421 20.883 11.233 28.378 1.81 2.496-3.985 4.282-7.971 6.958-12.32 4.287-7.43 1.964-21.382-3.748-26.274m-2.853 55.447c-15.524-7.248-33.907 2.537-39.261 18.3-12.492 36.24 45.152 40.952 48.72 9.06v-.906c0-8.516-.894-22.83-9.46-26.454m-466.688 553.38c-21.062 2.174-48.184.18-67.996.906-7.852-.362-11.603 1.812-9.818 5.979 1.966 5.437 14.279 7.792 21.595 7.43h175.255c100.653 0 194.528 0 282.514-.363 19.094 1.088 36.404-14.132 36.404-33.16-.532-3.08-4.82-3.804-12.134-3.986-9.64-.544-15.347-.905-21.952-1.086-44.795-.724-304.643.905-373.351-.724l-.179-.183c-13.92-1.812-174.54-.181-204.878-.725-14.28 1.632 29.088 19.208 33.906 18.12 6.427 5.256 174.363-5.98 140.634 7.792m-9.28 58.709h2.496c84.236-1.45 167.226.18 249.853 0 37.123-2.356 79.953 4.89 115.11-4.53 9.638-5.8 27.485-20.475 35.515-26.455 3.93-3.443-1.425-1.812-7.137-2.175h-464.55c-.713 0-.891.363.18 1.45 13.027 11.053 46.582 33.158 68.533 31.71m58.537 53.452c1.247 4.893 11.42 13.953 16.417 15.584 10.175.181 181.858 0 196.492.181 8.567-3.442 22.667-15.402 30.518-21.562 1.608-2.356 1.429-3.082-2.496-3.082-19.455 0-42.656-.181-62.29-.181h-85.125c-27.305.725-55.504-1.448-81.024 1.088-4.997 1.268-10.888 3.987-12.135 6.705l-.357 1.267Zm.175-15.583c80.136-1.993 174.898 2.719 251.282-2.717 9.638-.544 10.352-3.987 19.99-10.872 10.706-7.43 20.88-17.395 2.854-15.583H530.666c-.714 0-1.425.363-1.068.724 10.348 9.604 46.042 29.718 64.246 28.448h2.14Zm574.665-40.77-1.964 1.45c-122.961 80.816-246.643 161.63-369.425 242.444-40.155 26.636-78.524 53.09-119.751 81.721-12.313 9.422-26.055 14.314-39.44 3.623-169.544-123.396-349.261-233.745-520.412-355.15-6.601-5.071-14.456-10.327-8.208-17.574 20.704-19.39 44.08-57.26 68.71-73.566 9.64-4.17 23.555-7.431 35.873-12.866 11.062-4.893 23.912-22.288 34.8-29.717.893-.724 1.96-1.45 2.144-2.537.353-1.267-.183-2.536-.715-3.623-6.248-13.953-1.608-41.677-1.608-57.079V166.705c.715-1.268 1.608-2.174 2.676-3.262.893.363 1.607.544 2.679.544H981.83c.715 0 1.25-.362 1.787-.362h2.675c.893-.544 1.965-1.087 3.033-1.268 1.072-.182 2.144-.363 3.393-.544 2.14-.182 4.463 0 6.423.905 5.176.363 10.532.907 15.708 1.27h38.01c1.787 2.717 3.217 5.98 3.926 9.422v300.97c-.71 58.346-1.067 116.51 0 174.675v119.23c0 6.34 4.82 9.42 9.639 9.42.357 0 .714.364 1.072.364 1.25.362 2.496.544 3.746.544.536.18 1.072.18 1.43 0 .536 0 1.068-.182 1.425-.182 16.421 11.054 42.655 14.315 57.287 27.362 16.957 16.126 29.628 38.233 43.728 55.808 10.884 13.229 9.28 25.912-4.463 35.153" fill="#000" fill-rule="nonzero"/><path d="M763.898 416.916c-.734-.559-2.017-3.533-2.017-4.836l.183-.187-.183-.37c-.55-3.348-.364-80.535-.364-131.683.179-26.41.179-47.613.179-54.868h10.261v177.623l1.283.186c22.898 1.859 45.797 3.347 68.329 4.092v13.578l-6.412-.372c-23.263-.931-47.443-1.86-71.259-3.163M653.436 416.544c-.735-.558-2.016-3.534-2.016-4.836l.185-.184-.185-.187c-.551-3.535-.367-80.721-.367-131.683.184-26.04.184-47.057.184-54.682h10.257v177.252l1.283.185c22.899 2.047 45.797 3.347 68.328 4.277v13.392l-6.41-.186c-23.265-1.116-47.445-2.046-71.26-3.348M845.739 461.923H647.203a.654.654 0 0 0-.654.653v282.755c0 .361.294.653.654.653h198.536c.36 0 .653-.292.653-.653V462.576a.654.654 0 0 0-.653-.653" fill="#000" fill-rule="nonzero"/></g></g></svg>