<svg width="1335px" height="1335px" viewBox="0 0 1335 1335" version="1.1" xmlns="http://www.w3.org/2000/svg" xmlns:xlink="http://www.w3.org/1999/xlink">
    <title>Coe-Tavern-Wordmark</title>
    <defs>
        <polygon id="path-1" points="0 1333.3333 1333.3333 1333.3333 1333.3333 0 0 0"></polygon>
    </defs>
    <g id="Page-1" stroke="none" stroke-width="1" fill="none" fill-rule="evenodd">
        <g id="Coe-Tavern-Wordmark" transform="translate(0.000000, 1.000000)">
            <g id="g12-Clipped" transform="translate(666.891850, 667.219590) scale(-1, 1) rotate(-180.000000) translate(-666.891850, -667.219590) translate(0.225200, 0.552940)">
                <mask id="mask-2" fill="white">
                    <use xlink:href="#path-1"></use>
                </mask>
                <g id="path14"></g>
                <g id="g12" mask="url(#mask-2)">
                    <g transform="translate(106.666664, 366.666658)">
                        <g id="g18" transform="translate(288.698126, 240.674261)">
                            <path d="M323.999992,142.666663 L335.710658,142.666663 L335.710658,16.3573329 L323.999992,16.3573329 C320.731992,30.7159992 314.830659,43.3919989 306.297326,54.3826653 C273.797326,18.5733329 232.310661,0.667999983 181.835995,0.667999983 C128.455997,0.667999983 84.8199979,17.1546662 50.9893321,50.1279987 C17.0973329,83.1013313 0.181333329,126.711997 0.181333329,180.958662 C0.181333329,216.590661 7.9879998,250.12666 23.6026661,281.62266 C39.2173324,313.058659 61.0053318,336.430658 88.9653311,351.675991 C116.926664,366.921324 147.610663,374.545324 181.018662,374.545324 C208.615995,374.545324 233.611994,368.990657 256.03466,357.910658 C278.457326,346.830658 295.222659,334.569325 306.297326,321.095992 C314.105325,336.163992 318.825325,351.765325 320.459992,367.897324 L332.442658,367.897324 L335.710658,231.215994 L323.999992,231.215994 C315.829325,279.79066 299.155993,313.561325 274.009326,332.530658 C248.86266,351.498658 220.509328,360.982658 188.915995,360.982658 C150.243996,360.982658 119.498664,345.649325 96.7426642,314.979992 C73.9266648,284.31066 62.5479984,240.434661 62.5479984,183.351995 C62.5479984,129.282663 74.9853315,87.8293311 99.8599975,59.0213319 C124.73333,30.2146659 155.690663,15.8253329 192.729329,15.8253329 C212.519995,15.8253329 232.763994,20.5226662 253.46266,29.9186659 C274.161326,39.3146657 290.531993,55.2106653 302.635992,77.6359981 C314.679992,100.061331 321.821325,121.747997 323.999992,142.666663" id="path20" fill="#000000" fill-rule="nonzero"></path>
                        </g>
                        <g id="g22" transform="translate(639.481451, 238.618394)">
                            <path d="M46.6666655,117.33333 C46.6666655,78.6866647 53.205332,51.593332 66.2813317,36.0813324 C79.3573313,20.5693328 97.6826642,12.8279997 121.25733,12.8279997 C145.383996,12.8279997 163.831996,20.5693328 176.631996,36.0813324 C189.431995,51.593332 195.846662,78.6866647 195.846662,117.33333 C195.846662,155.625329 189.493329,182.925329 176.785329,199.234662 C164.077329,215.545328 145.567996,223.699994 121.25733,223.699994 C97.1306642,223.699994 78.651998,215.603995 65.8813317,199.353328 C53.0506653,183.162662 46.6666655,155.802663 46.6666655,117.33333 M0.80799998,118.662664 C0.80799998,151.990663 12.4106664,179.853329 35.6159991,202.307995 C58.8226652,224.703994 87.3693311,235.931994 121.25733,235.931994 C155.329329,235.931994 183.967995,224.674661 207.173328,202.159995 C230.378661,179.646662 241.982661,151.81333 241.982661,118.662664 C241.982661,81.9666646 230.194661,53.0999987 206.621328,32.1226659 C183.046662,11.0853331 154.591996,0.595999985 121.25733,0.595999985 C87.9213311,0.595999985 59.4973318,11.2626664 36.0453324,32.6546659 C12.533333,53.9866653 0.80799998,82.6759979 0.80799998,118.662664" id="path24" fill="#000000" fill-rule="nonzero"></path>
                        </g>
                        <g id="g26" transform="translate(893.680378, 238.752794)">
                            <path d="M157.333329,163.999996 C157.885329,168.077329 158.162663,171.711996 158.162663,174.902662 C158.162663,190.502662 153.403996,202.586662 143.919996,211.214661 C134.434663,219.782661 122.80133,224.097328 108.987997,224.097328 C75.4679981,224.097328 55.4853319,204.063995 49.0399988,163.999996 L157.333329,163.999996 Z M205.678662,153.363996 L47.9346655,153.363996 C47.1973322,142.903996 46.8293322,135.103997 46.8293322,129.962667 C46.8293322,91.6706644 53.0599987,62.8933318 65.4613317,43.6879989 C77.9239981,24.4239994 96.4639976,14.821333 121.142664,14.821333 C154.662663,14.821333 178.421329,29.2693326 192.418662,58.1653319 L205.678662,58.1653319 C199.785328,40.083999 188.090662,25.930666 170.593329,15.7373329 C153.09733,5.57333319 134.035997,0.462666655 113.407997,0.462666655 C94.2546643,0.462666655 76.1439981,5.10133321 59.1386652,14.437333 C42.0719989,23.7146661 28.1359993,36.8919991 17.2693329,53.9106653 C6.40399984,70.9293316 0.970666642,91.5826644 0.970666642,115.86933 C0.970666642,150.26133 11.4679997,178.831996 32.4639992,201.641328 C53.4599987,224.391994 79.703998,235.797327 111.197331,235.797327 C140.84933,235.797327 163.779996,227.110661 179.986662,209.737328 C196.193328,192.363995 204.757328,173.573329 205.678662,153.363996" id="path28" fill="#000000" fill-rule="nonzero"></path>
                        </g>
                        <g id="g30" transform="translate(0.998800, 0.799467)">
                            <path d="M10.6666664,233.333328 L1.10933331,233.333328 L2.56399994,306.877326 L275.983993,306.877326 L277.43866,233.333328 L268.505327,233.333328 C265.31866,253.48666 260.955993,268.025327 255.415994,276.99866 C249.87466,285.92266 243.918661,291.435993 237.547994,293.441326 C231.175994,295.497326 220.302661,296.499993 204.927995,296.499993 L159.634663,296.499993 L159.634663,80.6053313 C159.634663,56.6919986 160.166663,40.975999 161.181329,33.4559992 C162.243996,25.9359994 165.037329,20.3719995 169.607996,16.7626662 C174.178662,13.153333 182.766662,11.3479997 195.370662,11.3479997 L209.083995,11.3479997 L209.083995,0.970666642 L68.6333316,0.970666642 L68.6333316,11.3479997 L83.1773313,11.3479997 C95.2279976,11.3479997 103.561331,13.0026663 108.223997,16.3106663 C112.841331,19.6199995 115.819997,24.782666 117.135997,31.7519992 C118.450664,38.7706657 119.12133,55.0386653 119.12133,80.6053313 L119.12133,296.499993 L77.3599981,296.499993 C59.2146652,296.499993 47.0253322,295.547993 40.7933323,293.691993 C34.5599991,291.787993 28.6959993,286.12266 23.2253328,276.647993 C17.7533329,267.171993 13.5759997,252.73466 10.6666664,233.333328" id="path32" fill="#000000" fill-rule="nonzero"></path>
                        </g>
                        <g id="g34" transform="translate(209.822661, 0.640400)">
                            <path d="M127.999997,118.666664 L102.035997,108.739997 C61.0653318,92.949331 40.5813323,73.0959982 40.5813323,49.1839988 C40.5813323,39.707999 43.2013323,32.0626659 48.4413321,26.2733327 C53.681332,20.4826662 60.5106652,17.5999996 68.9266649,17.5999996 C76.3906648,17.5999996 85.0453312,19.9306662 94.8906643,24.5933327 C104.735997,29.2559993 115.771997,36.2493324 127.999997,45.5733322 L127.999997,118.666664 Z M197.077328,39.707999 L205.890662,39.707999 C204.461328,13.9906663 191.122662,1.13199997 165.873329,1.13199997 C155.074663,1.13199997 146.526663,3.83866657 140.279996,9.2533331 C133.98133,14.6679996 129.90533,22.7133328 127.999997,33.3919992 C112.119997,22.7133328 97.6159976,14.6679996 84.5413312,9.2533331 C71.4146649,3.83866657 59.7159985,1.13199997 49.3946654,1.13199997 C36.2133324,1.13199997 24.8599994,4.74133321 15.3319996,11.9599997 C5.80399985,19.1786662 1.03999997,28.7293326 1.03999997,40.6106657 C1.03999997,56.1013319 9.00666644,69.6373316 24.9919994,81.2173313 C40.9253323,92.7986643 62.9719984,104.078664 91.0786644,115.05733 L127.999997,129.26933 L127.999997,138.29333 C127.999997,151.07733 127.126663,160.326663 125.379997,166.041329 C123.63333,171.757329 119.106664,176.870662 111.802664,181.382662 C104.497331,185.893329 94.8906643,188.149329 82.9799979,188.149329 C59.1599985,188.149329 45.8999989,180.630662 43.2013323,165.590663 C40.659999,150.24933 33.9906658,142.579996 23.1919994,142.579996 C13.505333,142.579996 8.66266645,146.94133 8.66266645,155.663996 C8.66266645,164.237329 15.093333,173.435996 27.9559993,183.286662 C40.8186656,193.138662 60.8279985,198.075995 87.9826645,198.075995 C108.150664,198.075995 123.791997,195.067995 134.907997,189.051995 C146.023996,183.035995 153.354663,176.193329 156.954663,168.522662 C160.501329,160.853329 162.301329,149.12133 162.301329,133.330663 L162.301329,58.6586652 C162.301329,41.211999 163.253329,30.0079992 165.158663,25.0453327 C167.065329,20.0813328 171.193329,17.5999996 177.545329,17.5999996 C188.026662,17.5999996 194.537328,24.9693327 197.077328,39.707999" id="path36" fill="#000000" fill-rule="nonzero"></path>
                        </g>
                        <g id="g38" transform="translate(372.945191, 3.804667)">
                            <path d="M109.333331,0 L96.6799976,0 L33.1933325,148.215996 C26.938666,162.503996 21.9933328,171.602662 18.3573329,175.513329 C14.721333,179.422662 8.75733311,181.529329 0.467999988,181.829329 L0.467999988,192.206662 L81.1893313,192.206662 L81.1893313,181.829329 C72.3173315,181.829329 66.2573317,181.077329 62.9599984,179.573329 C59.7119985,178.069329 58.0639985,175.211996 58.0639985,171.001329 C58.0639985,167.691996 60.9733318,159.646663 66.790665,146.862663 L115.00533,34.7413325 L158.421329,134.679997 C165.257329,150.622663 168.674662,161 168.674662,165.811996 C168.674662,175.889329 161.402663,181.227995 146.858663,181.829329 L146.858663,192.206662 L207.071995,192.206662 L207.071995,181.829329 C199.654662,181.378662 193.425328,178.169329 188.430662,172.229329 C183.389329,166.287996 176.383996,152.95333 167.365329,132.198663 L109.333331,0 Z" id="path40" fill="#000000" fill-rule="nonzero"></path>
                        </g>
                        <g id="g42" transform="translate(560.311319, 2.545600)">
                            <path d="M123.999997,139.999996 C124.435997,143.458663 124.654664,146.542663 124.654664,149.24933 C124.654664,162.483996 120.89733,172.735996 113.406664,180.055995 C105.915997,187.325329 96.7293309,190.983995 85.8199979,190.983995 C59.3493318,190.983995 43.5693322,173.989329 38.4786657,139.999996 L123.999997,139.999996 Z M162.179996,130.975997 L37.6053324,130.975997 C37.0239991,122.102664 36.7333324,115.48533 36.7333324,111.123997 C36.7333324,78.6386647 41.6533323,54.2239986 51.4466654,37.9306657 C61.2893318,21.5879995 75.9306648,13.441333 95.4199976,13.441333 C121.890664,13.441333 140.65333,25.698666 151.706663,50.2133321 L162.179996,50.2133321 C157.525329,34.8733325 148.28933,22.8666661 134.471997,14.2186663 C120.654664,5.59599986 105.601331,1.25866664 89.3106644,1.25866664 C74.1853315,1.25866664 59.8826652,5.19466654 46.4533322,13.1159997 C32.9759992,20.9866661 21.9706661,32.1653325 13.389333,46.6039988 C4.80799988,61.0413318 0.51733332,78.5626647 0.51733332,99.1666642 C0.51733332,128.343997 8.80666645,152.582663 25.3879994,171.934662 C41.9693323,191.234662 62.6946651,200.910662 87.5653311,200.910662 C110.982664,200.910662 129.090663,193.541328 141.88933,178.802662 C154.689329,164.063996 161.451996,148.12133 162.179996,130.975997" id="path44" fill="#000000" fill-rule="nonzero"></path>
                        </g>
                        <g id="g46" transform="translate(735.853982, 6.233867)">
                            <path d="M61.3333318,145.33333 C66.278665,158.718663 74.3026648,169.922662 85.4533312,178.946662 C96.5559976,187.970662 107.439997,192.482662 118.05733,192.482662 C127.655997,192.482662 135.219997,189.399995 140.746663,183.233329 C146.27333,177.066662 149.03733,170.750662 149.03733,164.282663 C149.03733,159.921329 147.606663,156.161329 144.794663,153.003996 C141.934663,149.84533 138.491997,148.266663 134.419997,148.266663 C127.146663,148.266663 121.619997,153.830663 117.838664,164.959996 C115.22133,172.479996 111.293331,176.239996 106.057331,176.239996 C99.8039975,176.239996 92.313331,171.827996 83.5866646,163.054663 C74.8599981,154.231996 69.2599983,145.107996 66.7879983,135.63333 C64.3146651,126.15733 63.0786651,113.147997 63.0786651,96.6053309 L63.0786651,63.6679984 C63.0786651,43.9653322 63.3213318,31.5586659 63.8306651,26.4453327 C64.3386651,21.3306661 66.4239983,17.4213329 70.0599982,14.713333 C73.6959982,12.0066664 80.167998,10.6533331 89.4773311,10.6533331 L95.5853309,10.6533331 L95.5853309,0.275999993 L0.68266665,0.275999993 L0.68266665,10.6533331 L5.26399987,10.6533331 C13.9906663,10.6533331 20.1959995,11.9066664 23.9293327,14.3626663 C27.614666,16.8693329 29.8439993,20.3533328 30.5719992,24.8653327 C31.2986659,29.3773326 31.6626659,42.3119989 31.6626659,63.6679984 L31.6626659,115.779997 C31.6626659,135.63333 31.3959992,148.06533 30.9106659,153.12933 C30.3773326,158.142663 28.3173326,162.051996 24.6813327,164.859996 C21.0453328,167.617329 14.573333,169.021329 5.26399987,169.021329 L0.68266665,169.021329 L0.68266665,179.171996 C14.3546663,180.826662 32.2439992,185.263995 54.3519986,192.482662 C58.5693319,180.601329 60.8973318,164.885329 61.3333318,145.33333" id="path48" fill="#000000" fill-rule="nonzero"></path>
                        </g>
                        <g id="g50" transform="translate(893.261178, 5.383200)">
                            <path d="M49.3333321,193.333328 L55.2239986,193.333328 C58.5693319,184.009329 60.4599985,171.299996 60.8959985,155.207996 C71.3679982,167.991996 82.3493313,177.541329 93.8399977,183.858662 C105.329331,190.174662 117.32933,193.333328 129.83733,193.333328 C144.090663,193.333328 155.750663,190.250662 164.865329,184.083995 C173.931996,177.917329 179.797329,170.347996 182.415995,161.398663 C185.033329,152.450663 186.342662,139.415997 186.342662,122.270664 L186.342662,64.5186651 C186.342662,43.1626656 186.706662,30.1533326 187.433329,25.490666 C188.161329,20.8279995 190.439995,17.3186662 194.293328,15.013333 C198.147995,12.657333 205.250662,11.5039997 215.577328,11.5039997 L215.577328,1.12666664 L124.16533,1.12666664 L124.16533,11.5039997 L128.310663,11.5039997 C138.782663,11.5039997 145.618663,13.0826663 148.81733,16.2413329 C152.01733,19.3999995 153.835996,23.0839994 154.271996,27.2959993 C154.707996,31.5066659 154.926663,43.9146656 154.926663,64.5186651 L154.926663,124.075997 C154.926663,138.663997 154.223996,149.066663 152.84133,155.333329 C151.459996,161.549329 147.750663,167.089329 141.739996,171.901329 C135.678663,176.714662 128.018663,179.121329 118.710664,179.121329 C108.093331,179.121329 97.9359976,175.837329 88.2639978,169.319996 C78.591998,162.753329 69.4773316,152.951996 60.8959985,139.867997 L60.8959985,64.5186651 C60.8959985,43.1626656 61.2839985,30.1533326 62.0839984,25.490666 C62.8839984,20.8279995 65.210665,17.3186662 69.0653316,15.013333 C72.9199982,12.657333 80.0946647,11.5039997 90.5666644,11.5039997 L90.5666644,1.12666664 L0.245333327,1.12666664 L0.245333327,11.5039997 C10.2813331,11.5039997 17.2626662,12.5559997 21.1893328,14.6626663 C25.1173327,16.7679996 27.5413326,19.9759995 28.486666,24.2373327 C29.4319993,28.5493326 29.9159993,41.9586656 29.9159993,64.5186651 L29.9159993,119.563997 C29.9159993,141.070663 29.5039993,154.105329 28.7279993,158.691996 C27.9039993,163.278663 25.5773327,166.738662 21.7466661,169.069329 C17.8679996,171.399996 10.7173331,172.578662 0.245333327,172.578662 L0.245333327,182.955995 C16.2439996,184.761329 32.6066659,188.219995 49.3333321,193.333328" id="path52" fill="#000000" fill-rule="nonzero"></path>
                        </g>
                    </g>
                </g>
            </g>
        </g>
    </g>
</svg>